<svg width="96" height="19" viewBox="0 0 96 19" fill="none" xmlns="http://www.w3.org/2000/svg">
<g clip-path="url(#clip0_24_998)">
<g filter="url(#filter0_di_24_998)">
<path fill-rule="evenodd" clip-rule="evenodd" d="M86.4938 12.8166C84.4873 11.5652 83.0918 9.42592 82.8569 6.94847L79.7548 1.94326H76.7092V18.4173H79.4549V6.30404H79.5241L87.0228 18.4173H90.0684V13.9731C89.0929 13.9062 88.1667 13.6596 87.3227 13.2662V14.0796H87.2766L86.4938 12.8166ZM7.95703 1.94326H0.0891724V18.4173H2.97328V11.6339H7.2187C7.88012 11.6339 8.41849 11.7185 8.8338 11.8877C9.26449 12.0569 9.6029 12.3261 9.84901 12.6952C10.0951 13.049 10.2643 13.5028 10.3566 14.0565C10.4489 14.5949 10.495 15.2409 10.495 15.9947C10.495 16.3946 10.5104 16.8099 10.5412 17.2406C10.5873 17.6713 10.7181 18.0635 10.9334 18.4173H14.0252C13.7176 18.0789 13.4868 17.5175 13.333 16.733C13.1946 15.9331 13.1254 15.0487 13.1254 14.0796C13.1254 13.4336 13.0408 12.8952 12.8716 12.4645C12.7177 12.0338 12.5178 11.6877 12.2717 11.4262C12.0256 11.1494 11.7564 10.9494 11.4641 10.8263C11.1872 10.7033 10.9257 10.6264 10.6796 10.5956V10.5495C10.8181 10.5033 11.0334 10.411 11.3257 10.2726C11.6333 10.1341 11.941 9.9111 12.2486 9.60347C12.5562 9.28045 12.8254 8.86513 13.0561 8.35753C13.2869 7.83454 13.4022 7.18081 13.4022 6.39633C13.4022 4.99658 12.9485 3.90446 12.0409 3.11998C11.1334 2.3355 9.7721 1.94326 7.95703 1.94326ZM7.70323 9.44196H2.97328V4.2967H7.65708C8.02625 4.2967 8.38003 4.32746 8.71844 4.38899C9.07222 4.45052 9.37986 4.57357 9.64135 4.75816C9.91823 4.94274 10.1336 5.20423 10.2874 5.54264C10.4412 5.86566 10.5181 6.28866 10.5181 6.81165C10.5181 7.68842 10.2797 8.34984 9.80286 8.79591C9.32602 9.22661 8.62614 9.44196 7.70323 9.44196ZM27.7328 1.94326H15.8734V18.4173H27.8944V15.9254H18.7575V11.1032H27.0637V8.74977H18.7575V4.43514H27.7328V1.94326ZM36.7747 1.94326H29.9451V18.4173H36.7747C38.036 18.4173 39.1282 18.202 40.0511 17.7713C40.974 17.3406 41.7277 16.7561 42.3122 16.0177C42.8967 15.264 43.3274 14.3872 43.6043 13.3874C43.8966 12.3876 44.0427 11.3186 44.0427 10.1803C44.0427 9.04203 43.8966 7.97298 43.6043 6.97316C43.3274 5.97333 42.8967 5.10425 42.3122 4.36592C41.7277 3.6122 40.974 3.02 40.0511 2.5893C39.1282 2.15861 38.036 1.94326 36.7747 1.94326ZM35.6672 16.0639H32.8293V4.2967H35.6672C36.7901 4.2967 37.7053 4.45052 38.4129 4.75816C39.1358 5.05041 39.6973 5.46573 40.0972 6.00409C40.5125 6.52708 40.7894 7.15005 40.9278 7.873C41.0817 8.58057 41.1586 9.34966 41.1586 10.1803C41.1586 11.0109 41.0817 11.7877 40.9278 12.5107C40.7894 13.2182 40.5125 13.8412 40.0972 14.3796C39.6973 14.9025 39.1358 15.3179 38.4129 15.6255C37.7053 15.9177 36.7901 16.0639 35.6672 16.0639ZM48.3499 14.5411C48.1346 14.095 48.0269 13.5566 48.0269 12.926H45.1428C45.1582 13.9412 45.3504 14.8256 45.7196 15.5793C46.0888 16.3177 46.581 16.9253 47.1963 17.4021C47.8116 17.8789 48.5345 18.2327 49.3651 18.4635C50.1958 18.6942 51.0802 18.8096 52.0185 18.8096C52.8338 18.8096 53.6336 18.7096 54.4181 18.5096C55.2026 18.325 55.9025 18.0251 56.5177 17.6098C57.133 17.1944 57.6252 16.6638 57.9944 16.0177C58.3789 15.3563 58.5712 14.5641 58.5712 13.6412C58.5712 13.2105 58.502 12.7798 58.3636 12.3491C58.2405 11.9184 58.0405 11.5185 57.7637 11.1494C57.5022 10.7648 57.1715 10.4264 56.7715 10.1341C56.3716 9.84189 55.9025 9.61116 55.3641 9.44196C55.1487 9.38043 54.7873 9.28814 54.2797 9.16508C53.7874 9.02664 53.2798 8.88821 52.7568 8.74977C52.2339 8.61133 51.757 8.48828 51.3263 8.3806C50.911 8.25755 50.6726 8.18833 50.6111 8.17295C50.0266 8.00375 49.5497 7.75763 49.1805 7.43461C48.8268 7.09621 48.6499 6.63475 48.6499 6.05024C48.6499 5.63493 48.7422 5.28883 48.9267 5.01196C49.1267 4.73508 49.3728 4.51974 49.6651 4.36592C49.9573 4.19672 50.2804 4.08135 50.6341 4.01982C50.9879 3.94292 51.334 3.90446 51.6724 3.90446C52.6722 3.90446 53.4952 4.1275 54.1412 4.57357C54.7873 5.00427 55.1487 5.75029 55.2256 6.81165H58.1098C58.1098 5.95026 57.9406 5.19654 57.6022 4.5505C57.2637 3.88908 56.8023 3.33533 56.2178 2.88925C55.6486 2.44318 54.9795 2.11247 54.2104 1.89712C53.4567 1.66639 52.6492 1.55103 51.7878 1.55103C51.0494 1.55103 50.3188 1.65101 49.5959 1.85097C48.8729 2.03556 48.2269 2.32781 47.6577 2.72774C47.0886 3.12767 46.6271 3.63528 46.2734 4.25055C45.935 4.85045 45.7658 5.56571 45.7658 6.39633C45.7658 6.82703 45.8196 7.25003 45.9273 7.66534C46.0503 8.08066 46.2503 8.47289 46.5272 8.84206C46.804 9.21123 47.1732 9.54963 47.6347 9.85727C48.1115 10.1495 48.7037 10.3879 49.4113 10.5725C50.5495 10.8802 51.5032 11.134 52.2723 11.3339C53.0568 11.5185 53.7413 11.7185 54.3258 11.9338C54.6642 12.0569 54.9718 12.2722 55.2487 12.5799C55.541 12.8721 55.6871 13.3336 55.6871 13.9642C55.6871 14.2719 55.6256 14.5795 55.5025 14.8872C55.3795 15.1794 55.1795 15.4409 54.9026 15.6716C54.6257 15.9024 54.2643 16.0946 53.8182 16.2485C53.3721 16.3869 52.8338 16.4561 52.2031 16.4561C51.6186 16.4561 51.0725 16.3946 50.5649 16.2715C50.0727 16.1331 49.6343 15.9254 49.2498 15.6486C48.8652 15.3563 48.5653 14.9871 48.3499 14.5411ZM63.3343 1.94326H60.4502V12.4876C60.4502 13.5489 60.6117 14.4718 60.9347 15.2563C61.2578 16.0408 61.7115 16.7022 62.296 17.2406C62.8959 17.7636 63.6112 18.1558 64.4418 18.4173C65.2724 18.6788 66.1954 18.8096 67.2106 18.8096C68.2258 18.8096 69.1487 18.6788 69.9793 18.4173C70.8099 18.1558 71.5175 17.7636 72.102 17.2406C72.7019 16.7022 73.1634 16.0408 73.4864 15.2563C73.8094 14.4718 73.9709 13.5489 73.9709 12.4876V1.94326H71.0868V11.5416C71.0868 12.0953 71.0561 12.6568 70.9945 13.2259C70.9484 13.795 70.7946 14.3103 70.5331 14.7718C70.287 15.2179 69.9024 15.587 69.3794 15.8793C68.8718 16.1716 68.1489 16.3177 67.2106 16.3177C66.2723 16.3177 65.5416 16.1716 65.0186 15.8793C64.511 15.587 64.1265 15.2179 63.865 14.7718C63.6189 14.3103 63.4651 13.795 63.4035 13.2259C63.3574 12.6568 63.3343 12.0953 63.3343 11.5416V1.94326Z" fill="url(#paint0_linear_24_998)"/>
</g>
<circle cx="90.6089" cy="6.2043" r="5.30412" fill="#F66F14"/>
<circle cx="90.6089" cy="6.2043" r="5.30412" fill="url(#paint1_radial_24_998)"/>
<circle cx="90.6089" cy="6.2043" r="5.30412" stroke="#BA530E" stroke-width="0.173906"/>
</g>
<defs>
<filter id="filter0_di_24_998" x="-0.122048" y="1.51348" width="90.4017" height="17.681" filterUnits="userSpaceOnUse" color-interpolation-filters="sRGB">
<feFlood flood-opacity="0" result="BackgroundImageFix"/>
<feColorMatrix in="SourceAlpha" type="matrix" values="0 0 0 0 0 0 0 0 0 0 0 0 0 0 0 0 0 0 127 0" result="hardAlpha"/>
<feMorphology radius="0.240343" operator="erode" in="SourceAlpha" result="effect1_dropShadow_24_998"/>
<feOffset dy="0.173677"/>
<feGaussianBlur stdDeviation="0.225781"/>
<feComposite in2="hardAlpha" operator="out"/>
<feColorMatrix type="matrix" values="0 0 0 0 0 0 0 0 0 0 0 0 0 0 0 0 0 0 0.125 0"/>
<feBlend mode="normal" in2="BackgroundImageFix" result="effect1_dropShadow_24_998"/>
<feBlend mode="normal" in="SourceGraphic" in2="effect1_dropShadow_24_998" result="shape"/>
<feColorMatrix in="SourceAlpha" type="matrix" values="0 0 0 0 0 0 0 0 0 0 0 0 0 0 0 0 0 0 127 0" result="hardAlpha"/>
<feOffset dy="0.144206"/>
<feComposite in2="hardAlpha" operator="arithmetic" k2="-1" k3="1"/>
<feColorMatrix type="matrix" values="0 0 0 0 1 0 0 0 0 1 0 0 0 0 1 0 0 0 0.4 0"/>
<feBlend mode="normal" in2="shape" result="effect2_innerShadow_24_998"/>
</filter>
<linearGradient id="paint0_linear_24_998" x1="-1.69366" y1="9.76497" x2="91.7516" y2="9.76497" gradientUnits="userSpaceOnUse">
<stop stop-color="white"/>
<stop offset="1" stop-color="#999999"/>
</linearGradient>
<radialGradient id="paint1_radial_24_998" cx="0" cy="0" r="1" gradientUnits="userSpaceOnUse" gradientTransform="translate(90.5671 11.5954) rotate(-90) scale(10.7821 6.26869)">
<stop stop-color="#FFAD75"/>
<stop offset="1" stop-color="#F66F14" stop-opacity="0"/>
</radialGradient>
<clipPath id="clip0_24_998">
<rect width="95.9108" height="17.9963" fill="white" transform="translate(0.0891724 0.813232)"/>
</clipPath>
</defs>
</svg>
